<svg width="45" height="45" viewBox="0 0 45 45" fill="none" xmlns="http://www.w3.org/2000/svg">
<path d="M12 31.1517H40.5C40.6723 31.1517 40.8394 31.0832 40.9731 30.9577C41.1069 30.8323 41.1991 30.6575 41.2342 30.4629L44.9842 9.69509C45.007 9.56918 45.0051 9.439 44.9787 9.31403C44.9524 9.18906 44.9022 9.07243 44.8319 8.97264C44.7616 8.87285 44.6729 8.7924 44.5722 8.73715C44.4715 8.6819 44.3615 8.65323 44.25 8.65324H8.35865L6.73003 0.667056C6.6913 0.477221 6.59812 0.308047 6.46561 0.186967C6.3331 0.065888 6.16903 4.29201e-06 6 0H0.75C0.551087 0 0.360322 0.0911679 0.21967 0.253448C0.0790176 0.415727 0 0.635826 0 0.865324C0 1.09482 0.0790176 1.31492 0.21967 1.4772C0.360322 1.63948 0.551087 1.73065 0.75 1.73065H5.406L11.0866 29.5856C10.4812 29.8098 9.95313 30.2497 9.57819 30.8421C9.20325 31.4345 9.00082 32.1488 9 32.8823V34.6129C9.00089 35.5306 9.31725 36.4104 9.87966 37.0593C10.4421 37.7082 11.2046 38.0732 12 38.0742H12.0021C11.5835 38.7169 11.3284 39.4813 11.2654 40.2819C11.2023 41.0824 11.3338 41.8874 11.6451 42.6065C11.9564 43.3257 12.4352 43.9305 13.0278 44.3533C13.6203 44.7761 14.3033 45 15 45C15.6967 45 16.3796 44.7761 16.9722 44.3533C17.5648 43.9305 18.0436 43.3257 18.3549 42.6065C18.6662 41.8874 18.7977 41.0824 18.7346 40.2819C18.6716 39.4813 18.4165 38.7169 17.9979 38.0742H33.002C32.5835 38.7169 32.3284 39.4813 32.2654 40.2819C32.2023 41.0824 32.3338 41.8874 32.6451 42.6065C32.9564 43.3257 33.4352 43.9305 34.0278 44.3533C34.6203 44.7761 35.3033 45 36 45C36.6967 45 37.3796 44.7761 37.9722 44.3533C38.5648 43.9305 39.0436 43.3257 39.3549 42.6065C39.6661 41.8874 39.7976 41.0824 39.7346 40.2819C39.6716 39.4813 39.4165 38.7169 38.9979 38.0742H42C42.1989 38.0742 42.3897 37.9831 42.5303 37.8208C42.671 37.6585 42.75 37.4384 42.75 37.2089C42.75 36.9794 42.671 36.7593 42.5303 36.597C42.3897 36.4348 42.1989 36.3436 42 36.3436H12C11.6023 36.343 11.2211 36.1605 10.9399 35.8361C10.6587 35.5117 10.5005 35.0718 10.5 34.6129V32.8823C10.5005 32.4235 10.6587 31.9836 10.9399 31.6591C11.2211 31.3347 11.6023 31.1522 12 31.1517ZM12.594 29.421L11.8882 25.9597H16.0254L16.4004 29.421H12.5942H12.594ZM28.8431 20.7678L28.718 24.2291H23.7819L23.6569 20.7678H28.8431ZM23.5944 19.0371L23.4694 15.5758H29.0306L28.9055 19.0371H23.5944ZM22.2806 24.2291H17.3494L16.9744 20.7678H22.1554L22.2806 24.2291ZM22.3431 25.9597L22.4681 29.421H17.9119L17.5369 25.9597H22.3431ZM23.8444 25.9597H28.6556L28.5305 29.421H23.9694L23.8444 25.9597ZM30.1569 25.9597H34.9629L34.5879 29.421H30.0317L30.1569 25.9597ZM30.2194 24.2291L30.3444 20.7678H35.5254L35.1504 24.2291H30.2194ZM37.037 20.7678H41.4527L40.8281 24.2291H36.662L37.037 20.7678ZM37.2245 19.0371L37.5995 15.5758H42.3902L41.7656 19.0371H37.2245ZM35.7129 19.0371H30.4067L30.5317 15.5758H36.0877L35.7129 19.0371ZM30.5942 13.8452L30.7192 10.3839H36.6502L36.2752 13.8452H30.5942ZM29.0929 13.8452H23.4069L23.2819 10.3839H29.2181L29.0929 13.8452ZM21.9054 13.8452H16.2242L15.8492 10.3839H21.7802L21.9054 13.8452ZM21.9679 15.5758L22.0929 19.0371H16.7867L16.4117 15.5758H21.9679ZM15.2752 19.0371H10.4762L9.77034 15.5758H14.9002L15.2752 19.0371ZM15.4627 20.7678L15.8377 24.2291H11.5346L10.8288 20.7678H15.4627ZM39.8906 29.421H36.0995L36.4745 25.9597H40.5152L39.8906 29.421ZM42.7031 13.8452H37.787L38.162 10.3839H43.3277L42.7031 13.8452ZM14.3379 10.3839L14.7129 13.8452H9.41756L8.71171 10.3839H14.3379ZM17.25 40.6702C17.25 41.1836 17.118 41.6856 16.8708 42.1125C16.6236 42.5394 16.2722 42.8721 15.861 43.0686C15.4499 43.2651 14.9975 43.3165 14.561 43.2163C14.1246 43.1161 13.7237 42.8689 13.409 42.5058C13.0943 42.1428 12.88 41.6802 12.7932 41.1767C12.7064 40.6731 12.751 40.1511 12.9213 39.6768C13.0916 39.2024 13.38 38.797 13.75 38.5117C14.12 38.2265 14.555 38.0742 15 38.0742C15.5965 38.075 16.1684 38.3488 16.5902 38.8355C17.012 39.3221 17.2493 39.982 17.25 40.6702ZM38.25 40.6702C38.25 41.1836 38.118 41.6856 37.8708 42.1125C37.6236 42.5394 37.2722 42.8721 36.861 43.0686C36.4499 43.2651 35.9975 43.3165 35.561 43.2163C35.1246 43.1161 34.7237 42.8689 34.409 42.5058C34.0943 42.1428 33.88 41.6802 33.7932 41.1767C33.7064 40.6731 33.751 40.1511 33.9213 39.6768C34.0916 39.2024 34.3799 38.797 34.75 38.5117C35.12 38.2265 35.555 38.0742 36 38.0742C36.5965 38.075 37.1684 38.3488 37.5902 38.8355C38.012 39.3221 38.2493 39.982 38.25 40.6702Z" fill="#FFEE33"/>
</svg>
