<svg width="28" height="27" viewBox="0 0 28 27" fill="none" xmlns="http://www.w3.org/2000/svg">
<path d="M13.7118 0C8.07568 0 6.42733 0.00581429 6.10692 0.0323939C4.95029 0.128537 4.23056 0.310649 3.44647 0.701038C2.84219 1.0011 2.36562 1.34892 1.89529 1.83649C1.03872 2.72566 0.519591 3.81958 0.331665 5.1199C0.240298 5.75117 0.213719 5.87991 0.20832 9.10435C0.206244 10.1792 0.20832 11.5937 0.20832 13.491C0.20832 19.1226 0.214544 20.7693 0.241539 21.0891C0.334983 22.2145 0.511496 22.9226 0.885272 23.6972C1.5996 25.1798 2.96388 26.2929 4.57112 26.7082C5.12763 26.8514 5.74228 26.9304 6.53137 26.9677C6.86569 26.9823 10.2733 26.9926 13.6829 26.9926C17.0926 26.9926 20.5023 26.9885 20.8283 26.9719C21.742 26.9289 22.2725 26.8577 22.8591 26.7061C24.4768 26.2887 25.8161 25.1923 26.545 23.6889C26.9115 22.933 27.0973 22.1979 27.1814 21.1312C27.1997 20.8986 27.2074 17.1906 27.2074 13.4875C27.2074 9.78379 27.1991 6.08258 27.1808 5.85001C27.0957 4.76606 26.9098 4.0372 26.5315 3.2668C26.221 2.63616 25.8763 2.1652 25.3759 1.68365C24.4828 0.830613 23.3905 0.31148 22.089 0.123761C21.4583 0.0326016 21.3327 0.00560664 18.1057 0L13.7118 0Z" fill="url(#paint0_radial)"/>
<path d="M13.7118 0C8.07568 0 6.42733 0.00581429 6.10692 0.0323939C4.95029 0.128537 4.23056 0.310649 3.44647 0.701038C2.84219 1.0011 2.36562 1.34892 1.89529 1.83649C1.03872 2.72566 0.519591 3.81958 0.331665 5.1199C0.240298 5.75117 0.213719 5.87991 0.20832 9.10435C0.206244 10.1792 0.20832 11.5937 0.20832 13.491C0.20832 19.1226 0.214544 20.7693 0.241539 21.0891C0.334983 22.2145 0.511496 22.9226 0.885272 23.6972C1.5996 25.1798 2.96388 26.2929 4.57112 26.7082C5.12763 26.8514 5.74228 26.9304 6.53137 26.9677C6.86569 26.9823 10.2733 26.9926 13.6829 26.9926C17.0926 26.9926 20.5023 26.9885 20.8283 26.9719C21.742 26.9289 22.2725 26.8577 22.8591 26.7061C24.4768 26.2887 25.8161 25.1923 26.545 23.6889C26.9115 22.933 27.0973 22.1979 27.1814 21.1312C27.1997 20.8986 27.2074 17.1906 27.2074 13.4875C27.2074 9.78379 27.1991 6.08258 27.1808 5.85001C27.0957 4.76606 26.9098 4.0372 26.5315 3.2668C26.221 2.63616 25.8763 2.1652 25.3759 1.68365C24.4828 0.830613 23.3905 0.31148 22.089 0.123761C21.4583 0.0326016 21.3327 0.00560664 18.1057 0L13.7118 0Z" fill="url(#paint1_radial)"/>
<path d="M13.7056 3.53003C10.9986 3.53003 10.6589 3.54187 9.5957 3.59025C8.53459 3.63884 7.8103 3.80683 7.17655 4.05332C6.52098 4.3079 5.96489 4.64845 5.41087 5.20268C4.85644 5.7567 4.51588 6.31279 4.26046 6.96815C4.01336 7.60211 3.84516 8.32661 3.7974 9.38731C3.74985 10.4505 3.73739 10.7904 3.73739 13.4974C3.73739 16.2044 3.74943 16.543 3.7976 17.6062C3.8464 18.6673 4.0144 19.3916 4.26068 20.0254C4.51547 20.6809 4.85601 21.237 5.41024 21.7911C5.96405 22.3455 6.52014 22.6869 7.17529 22.9415C7.80946 23.1879 8.53397 23.3559 9.59488 23.4045C10.6581 23.4529 10.9976 23.4648 13.7043 23.4648C16.4115 23.4648 16.7502 23.4529 17.8134 23.4045C18.8745 23.3559 19.5996 23.1879 20.2338 22.9415C20.8891 22.6869 21.4444 22.3455 21.9982 21.7911C22.5526 21.237 22.8932 20.681 23.1486 20.0256C23.3936 19.3916 23.5618 18.6671 23.6117 17.6064C23.6594 16.5432 23.6719 16.2044 23.6719 13.4974C23.6719 10.7904 23.6594 10.4507 23.6117 9.38751C23.5618 8.32641 23.3936 7.60211 23.1486 6.96835C22.8932 6.31279 22.5526 5.7567 21.9982 5.20268C21.4438 4.64824 20.8893 4.30769 20.2332 4.05332C19.5977 3.80683 18.873 3.63884 17.8119 3.59025C16.7487 3.54187 16.4103 3.53003 13.7025 3.53003H13.7056ZM12.8114 5.32623C13.0768 5.32582 13.3729 5.32623 13.7056 5.32623C16.3669 5.32623 16.6823 5.33578 17.7332 5.38354C18.705 5.42798 19.2325 5.59037 19.5838 5.72679C20.049 5.90745 20.3806 6.12341 20.7292 6.47227C21.0781 6.82113 21.2941 7.15337 21.4751 7.61852C21.6116 7.96945 21.7742 8.49689 21.8184 9.46871C21.8661 10.5194 21.8765 10.8351 21.8765 13.4951C21.8765 16.1551 21.8661 16.4708 21.8184 17.5215C21.7739 18.4933 21.6116 19.0208 21.4751 19.3717C21.2945 19.8368 21.0781 20.168 20.7292 20.5167C20.3804 20.8656 20.0492 21.0815 19.5838 21.2622C19.2329 21.3992 18.705 21.5612 17.7332 21.6056C16.6825 21.6534 16.3669 21.6638 13.7056 21.6638C11.0441 21.6638 10.7287 21.6534 9.67793 21.6056C8.70611 21.5608 8.17868 21.3984 7.82712 21.262C7.36198 21.0813 7.02973 20.8653 6.68087 20.5165C6.33201 20.1676 6.11606 19.8362 5.93499 19.3709C5.79856 19.0199 5.63596 18.4925 5.59173 17.5207C5.54397 16.4699 5.53442 16.1543 5.53442 13.4926C5.53442 10.8309 5.54397 10.5169 5.59173 9.46622C5.63617 8.4944 5.79856 7.96696 5.93499 7.61561C6.11564 7.15047 6.33201 6.81822 6.68087 6.46936C7.02973 6.1205 7.36198 5.90455 7.82712 5.72347C8.17847 5.58642 8.70611 5.42445 9.67793 5.37981C10.5974 5.33827 10.9538 5.32582 12.8114 5.32374V5.32623ZM19.0261 6.98123C18.3657 6.98123 17.83 7.51635 17.83 8.1769C17.83 8.83723 18.3657 9.37298 19.0261 9.37298C19.6864 9.37298 20.2222 8.83723 20.2222 8.1769C20.2222 7.51656 19.6864 6.98081 19.0261 6.98081V6.98123ZM13.7056 8.37873C10.8788 8.37873 8.58693 10.6706 8.58693 13.4974C8.58693 16.3242 10.8788 18.615 13.7056 18.615C16.5324 18.615 18.8234 16.3242 18.8234 13.4974C18.8234 10.6706 16.5322 8.37873 13.7054 8.37873H13.7056ZM13.7056 10.1749C15.5404 10.1749 17.028 11.6624 17.028 13.4974C17.028 15.3322 15.5404 16.8198 13.7056 16.8198C11.8705 16.8198 10.3831 15.3322 10.3831 13.4974C10.3831 11.6624 11.8705 10.1749 13.7056 10.1749V10.1749Z" fill="white"/>
<defs>
<radialGradient id="paint0_radial" cx="0" cy="0" r="1" gradientUnits="userSpaceOnUse" gradientTransform="translate(7.37931 29.0716) rotate(-90) scale(26.7517 24.888)">
<stop stop-color="#FFDD55"/>
<stop offset="0.1" stop-color="#FFDD55"/>
<stop offset="0.5" stop-color="#FF543E"/>
<stop offset="1" stop-color="#C837AB"/>
</radialGradient>
<radialGradient id="paint1_radial" cx="0" cy="0" r="1" gradientUnits="userSpaceOnUse" gradientTransform="translate(-4.31527 1.9445) rotate(78.6776) scale(11.9582 49.3048)">
<stop stop-color="#3771C8"/>
<stop offset="0.128" stop-color="#3771C8"/>
<stop offset="1" stop-color="#6600FF" stop-opacity="0"/>
</radialGradient>
</defs>
</svg>
