<svg width="27" height="27" viewBox="0 0 27 27" fill="none" xmlns="http://www.w3.org/2000/svg">
<path d="M25.51 27.0002C26.3328 27.0002 27 26.3329 27 25.5101V1.49015C27 0.666975 26.3327 0 25.51 0H1.49015C0.666975 0 0 0.667076 0 1.49015V25.51C0 26.3329 0.666975 27.0001 1.49015 27.0001H25.51V27.0002Z" fill="#485A96"/>
<path d="M18.6296 27.0003V16.5444H22.1392L22.6646 12.4695H18.6295V9.86789C18.6295 8.68812 18.957 7.88417 20.6489 7.88417L22.8066 7.88321V4.23867C22.4334 4.1891 21.1525 4.07812 19.6625 4.07812C16.5514 4.07812 14.4214 5.97708 14.4214 9.46451V12.4696H10.9029V16.5445H14.4214V27.0003H18.6296V27.0003Z" fill="white"/>
</svg>
